#FakeWall.obj
#31 March 2020
#17:24:06
#-------

#FakeWall
#-------
g FakeWall
v -0.09255531 -5.389898 -3.661127
v -0.09255531 5.389898 -3.661127
v -0.09255472 5.389898 3.661127
v -0.09255472 -5.389898 3.661127
v -0.09255531 5.389898 -3.661127
v 0.09255472 5.389898 -3.661127
v 0.09255531 5.389898 3.661127
v -0.09255472 5.389898 3.661127
v 0.09255472 5.389898 -3.661127
v 0.09255472 -5.389898 -3.661127
v 0.09255531 -5.389898 3.661127
v 0.09255531 5.389898 3.661127
v 0.09255472 -5.389898 -3.661127
v -0.09255531 -5.389898 -3.661127
v -0.09255472 -5.389898 3.661127
v 0.09255531 -5.389898 3.661127
v -0.09255472 -5.389898 3.661127
v -0.09255472 5.389898 3.661127
v 0.09255531 5.389898 3.661127
v 0.09255531 -5.389898 3.661127
v 0.09255472 -5.389898 -3.661127
v 0.09255472 5.389898 -3.661127
v -0.09255531 5.389898 -3.661127
v -0.09255531 -5.389898 -3.661127

vn 1 0 -1.192093E-07
vn 1 0 -1.192093E-07
vn 1 0 -1.192093E-07
vn 1 0 -1.192093E-07
vn 0 -1 0
vn 0 -1 0
vn 0 -1 0
vn 0 -1 0
vn -1 0 1.192093E-07
vn -1 0 1.192093E-07
vn -1 0 1.192093E-07
vn -1 0 1.192093E-07
vn 0 1 0
vn 0 1 0
vn 0 1 0
vn 0 1 0
vn -1.192093E-07 0 -1
vn -1.192093E-07 0 -1
vn -1.192093E-07 0 -1
vn -1.192093E-07 0 -1
vn 1.192093E-07 0 1
vn 1.192093E-07 0 1
vn 1.192093E-07 0 1
vn 1.192093E-07 0 1

vt 0.00189663 0.001997009
vt 0.00189663 0.3314509
vt 0.3313506 0.3314509
vt 0.3313506 0.001997009
vt 0.3389151 0.001992032
vt 0.3389151 0.331446
vt 0.6683691 0.331446
vt 0.6683691 0.001992032
vt 0.6182642 0.3352481
vt 0.6182642 0.6647419
vt 0.9477181 0.6647419
vt 0.9477181 0.3352481
vt 0.2829875 0.3352282
vt 0.2829875 0.6646872
vt 0.6124415 0.6646872
vt 0.6124415 0.3352282
vt 0.001891653 0.6684844
vt 0.001891653 0.9979383
vt 0.3313456 0.9979383
vt 0.3313456 0.6684844
vt 0.3389101 0.998008
vt 0.6683641 0.998008
vt 0.6683641 0.6685491
vt 0.3389101 0.6685491

usemtl WallMat
usemap WallMat
f 1/1/1 2/2/2 3/3/3
f 1/1/1 3/3/3 4/4/4
f 5/5/5 6/6/6 7/7/7
f 5/5/5 7/7/7 8/8/8
f 9/9/9 10/10/10 11/11/11
f 9/9/9 11/11/11 12/12/12
f 13/13/13 14/14/14 15/15/15
f 13/13/13 15/15/15 16/16/16
f 17/17/17 18/18/18 19/19/19
f 17/17/17 19/19/19 20/20/20
f 21/21/21 22/22/22 23/23/23
f 21/21/21 23/23/23 24/24/24
